<?xml version="1.0" encoding="UTF-8"?>
<!DOCTYPE svg  PUBLIC '-//W3C//DTD SVG 1.1//EN'  'http://www.w3.org/Graphics/SVG/1.1/DTD/svg11.dtd'>
<svg clip-rule="evenodd" fill-rule="evenodd" stroke-linecap="square" stroke-miterlimit="1.5" version="1.1" viewBox="0 0 176 176" xml:space="preserve" xmlns="http://www.w3.org/2000/svg"><rect width="175.35" height="175.35" fill="none"/><path d="m172.91 87.676c-0 47.042-38.192 85.234-85.234 85.234s-85.234-38.192-85.234-85.234 38.192-85.234 85.234-85.234 85.234 38.192 85.234 85.234z" fill="none" stroke="#ef8701" stroke-width="1.59px"/><path d="m172.91 87.676c-0 47.042-38.192 85.234-85.234 85.234s-85.234-38.192-85.234-85.234 38.192-85.234 85.234-85.234 85.234 38.192 85.234 85.234z" fill="#ef8701"/><path d="m137.83 90.528 5.594 21.177-17.144 2.784 0.953 19.687-17.573 0.7-2.444-15.046-23.618 3.836 3.14 19.332-21.518 3.494-2.799-17.232-17.144 2.785-4.972-16.79 18.976-5.326-3.494-21.518-23.618 3.836-3.14-19.332 23.618-3.836-6.987-29.749 23.618-3.836 4.532 27.903 27.991-4.546-1.736-23.958 21.873-1.308 1.294 21.786 15.045-2.444 3.154 19.419-17.144 2.784 0.952 19.687 12.591-4.289zm-57.385 13.719 25.463-6.29-0.953-19.687-27.65 6.646 3.14 19.331z" fill="#181511" fill-rule="nonzero"/></svg>
